

<svg version="1.0" xmlns="http://www.w3.org/2000/svg"
 width="150" height="50" viewBox="0 0 317.000000 163.000000"
 preserveAspectRatio="xMidYMid meet">

<g transform="translate(0.000000,163.000000) scale(0.100000,-0.100000)"
fill="#000000" stroke="none">
<path d="M576 1296 c-7 -53 -9 -56 -36 -56 -72 0 -73 -2 -103 -186 -15 -93
-29 -188 -31 -212 -2 -23 -6 -45 -10 -49 -9 -10 -7 -51 3 -57 5 -3 11 11 14
32 19 138 72 429 80 440 5 6 23 12 39 12 l30 0 -7 -50 c-6 -41 -4 -50 8 -50
18 0 22 10 38 113 l12 77 42 0 c154 0 371 -84 459 -179 29 -30 30 -33 34 -168
5 -124 6 -135 18 -108 8 18 13 73 14 135 1 93 3 108 23 131 57 65 194 149 295
179 23 7 40 15 38 18 -9 8 -123 -31 -188 -65 -36 -19 -93 -59 -126 -88 l-59
-54 -58 55 c-104 97 -273 165 -446 180 l-76 7 -7 -57z"/>
<path d="M1558 1323 c7 -3 16 -2 19 1 4 3 -2 6 -13 5 -11 0 -14 -3 -6 -6z"/>
<path d="M1777 1135 c-106 -37 -156 -164 -108 -271 48 -106 196 -139 291 -64
52 41 70 82 70 155 0 96 -46 159 -135 184 -51 14 -71 13 -118 -4z m121 -21
c37 -26 55 -73 58 -153 4 -140 -58 -213 -153 -181 -49 18 -73 72 -73 170 0
124 34 180 110 180 20 0 46 -7 58 -16z"/>
<path d="M2226 1138 c-57 -15 -112 -75 -124 -134 -17 -80 1 -145 55 -196 56
-54 144 -64 221 -25 149 74 126 312 -35 356 -45 13 -65 12 -117 -1z m114 -23
c44 -23 64 -86 58 -185 -5 -89 -22 -124 -73 -149 -39 -19 -97 0 -126 41 -28
39 -37 128 -20 204 20 89 88 127 161 89z"/>
<path d="M1281 1133 c25 -4 26 -7 33 -95 3 -50 6 -129 6 -175 l0 -83 -30 0
c-16 0 -30 -4 -30 -9 0 -5 53 -9 123 -8 108 2 126 5 159 25 23 14 41 35 48 57
18 53 -6 90 -78 121 -2 1 11 15 28 32 37 37 39 71 6 109 -24 28 -25 28 -158
29 -73 1 -121 0 -107 -3z m201 -33 c43 -53 8 -120 -62 -120 l-40 0 0 76 0 77
42 -6 c27 -4 49 -14 60 -27z m13 -165 c19 -18 25 -35 25 -65 0 -61 -33 -90
-101 -90 l-51 0 6 31 c3 17 6 58 6 90 l0 59 45 0 c35 0 52 -6 70 -25z"/>
<path d="M2553 1133 l27 -4 0 -175 0 -174 -25 0 c-14 0 -25 -5 -25 -10 0 -7
32 -10 85 -9 46 1 82 6 79 11 -3 4 -13 8 -23 8 -14 0 -20 10 -24 38 -7 48 5
124 20 129 6 2 42 -39 79 -91 l68 -96 48 0 c26 0 48 5 48 10 0 6 -6 10 -13 10
-8 0 -29 21 -47 48 -19 26 -37 49 -40 52 -3 3 -23 31 -45 64 l-40 59 55 49
c30 28 69 59 85 69 l30 19 -60 -1 c-33 -1 -50 -4 -37 -6 12 -2 22 -8 22 -12 0
-4 -38 -42 -85 -85 l-85 -77 0 85 0 85 28 4 c15 2 -13 4 -63 4 -49 0 -78 -2
-62 -4z"/>
<path d="M520 974 c0 -4 -9 -59 -19 -123 -19 -115 -33 -233 -24 -198 4 16 6
16 16 4 9 -11 36 -16 95 -19 45 -2 82 0 82 4 0 10 -26 15 -102 23 -38 4 -68 8
-68 9 0 1 9 51 20 111 22 120 25 181 10 190 -5 3 -10 3 -10 -1z"/>
<path d="M372 667 c-20 -92 -31 -152 -27 -155 2 -2 18 4 36 13 137 71 359 79
553 19 38 -12 5 14 -56 44 -71 34 -175 64 -183 52 -3 -4 28 -15 68 -24 71 -16
135 -44 72 -32 -16 4 -83 9 -148 13 -112 6 -156 1 -265 -27 l-32 -8 4 74 c6
87 -6 105 -22 31z"/>
<path d="M1163 675 c0 -27 2 -38 4 -22 2 15 2 37 0 50 -2 12 -4 0 -4 -28z"/>
<path d="M1863 696 c-63 -28 -52 -81 26 -121 50 -25 65 -44 55 -70 -7 -18 -45
-29 -72 -21 -10 4 -26 21 -35 39 l-16 32 0 -37 c-1 -21 2 -37 7 -36 4 1 19 -2
35 -6 71 -21 142 27 119 79 -6 13 -34 36 -61 49 -57 29 -65 39 -56 65 12 39
81 35 91 -5 8 -33 25 -30 22 4 -1 17 -8 28 -17 28 -9 1 -27 4 -41 7 -14 4 -39
0 -57 -7z"/>
<path d="M2305 691 c-45 -20 -65 -53 -65 -109 0 -44 20 -76 60 -97 86 -44 180
22 167 117 -6 46 -29 75 -74 94 -40 17 -40 17 -88 -5z m99 -23 c19 -27 21
-116 4 -153 -14 -30 -50 -42 -83 -27 -45 21 -56 140 -17 185 22 25 77 22 96
-5z"/>
<path d="M2018 665 c-5 -43 4 -45 19 -5 8 20 18 30 32 30 20 0 21 -5 21 -104
0 -91 -2 -105 -17 -109 -10 -3 7 -5 37 -5 30 0 47 2 38 5 -16 4 -18 18 -18
109 0 103 0 104 24 104 18 0 27 -8 35 -30 13 -40 22 -38 19 5 l-2 35 -92 0
-92 0 -4 -35z"/>
<path d="M2530 591 c0 -96 -2 -110 -17 -114 -10 -3 7 -5 37 -5 30 0 47 2 38 5
-14 3 -18 15 -18 54 0 66 20 64 60 -6 28 -48 35 -55 63 -55 26 0 29 2 15 13
-9 6 -27 31 -41 54 l-26 41 24 16 c17 11 25 26 25 46 0 41 -32 60 -102 60
l-58 0 0 -109z m112 74 c17 -38 -3 -75 -42 -75 -29 0 -30 1 -30 50 0 49 1 50
30 50 23 0 33 -6 42 -25z"/>
<path d="M2761 593 c-1 -71 -6 -110 -14 -115 -7 -4 27 -8 76 -8 l87 0 -1 38
c-1 36 -1 37 -11 9 -10 -27 -40 -42 -75 -35 -15 3 -18 13 -18 53 l0 50 40 6
40 6 -42 2 -43 1 0 46 0 45 42 -3 c34 -2 45 -8 55 -28 l13 -25 0 33 0 32 -74
0 -74 0 -1 -107z"/>
<path d="M252 492 c-23 -70 -42 -130 -42 -133 0 -3 55 5 123 17 154 29 323 50
504 65 137 10 143 10 168 -9 15 -12 49 -28 77 -38 73 -24 143 -14 225 31 36
20 93 42 127 50 l61 13 -92 0 c-52 0 -96 -4 -99 -10 -13 -20 -90 -48 -136 -48
-54 0 -88 11 -138 45 -34 23 -37 23 -165 14 -163 -12 -324 -33 -484 -64 -69
-14 -126 -23 -128 -21 -2 2 8 50 22 106 14 56 24 104 23 106 -2 2 -23 -54 -46
-124z"/>
</g>
</svg>
